<?xml version="1.0" encoding="UTF-8" standalone="no"?>
<svg
   viewBox="0 0 24 24"
   width="24"
   height="24"
   version="1.1"
   id="svg1"
   sodipodi:docname="crown.svg"
   inkscape:version="1.3.2 (091e20e, 2023-11-25, custom)"
   xmlns:inkscape="http://www.inkscape.org/namespaces/inkscape"
   xmlns:sodipodi="http://sodipodi.sourceforge.net/DTD/sodipodi-0.dtd"
   xmlns="http://www.w3.org/2000/svg"
   xmlns:svg="http://www.w3.org/2000/svg">
  <defs
     id="defs1" />
  <sodipodi:namedview
     id="namedview1"
     pagecolor="#ffffff"
     bordercolor="#000000"
     borderopacity="0.25"
     inkscape:showpageshadow="2"
     inkscape:pageopacity="0.0"
     inkscape:pagecheckerboard="0"
     inkscape:deskcolor="#d1d1d1"
     inkscape:zoom="33.875"
     inkscape:cx="11.98524"
     inkscape:cy="12"
     inkscape:window-width="1920"
     inkscape:window-height="1009"
     inkscape:window-x="-8"
     inkscape:window-y="-8"
     inkscape:window-maximized="1"
     inkscape:current-layer="svg1" />
  <g
     id="_01_align_center"
     data-name="01 align center"
     style="fill:#fbcf46;fill-opacity:1">
    <path
       d="M21,21.707H3a3,3,0,0,1-3-3V2.293l6,6,6-6,6,6,6-6V18.707A3,3,0,0,1,21,21.707ZM2,7.121V18.707a1,1,0,0,0,1,1H21a1,1,0,0,0,1-1V7.121l-4,4-6-6-6,6Z"
       id="path1"
       style="fill:#fbcf46;fill-opacity:1" />
  </g>
  <rect
     style="fill:#ffffff;fill-opacity:0"
     id="rect1"
     width="3.4833949"
     height="13.904059"
     x="0.61992621"
     y="6.5830259" />
  <rect
     style="fill:#ffffff;fill-opacity:1"
     id="rect2"
     width="18.686346"
     height="11.365314"
     x="3.5719557"
     y="8.9151287" />
  <rect
     style="fill:#ffffff;fill-opacity:0"
     id="rect3"
     width="7.7047973"
     height="3.8671587"
     x="8.2361622"
     y="6.1697416" />
  <rect
     style="fill:#ffffff;fill-opacity:0"
     id="rect4"
     width="3.0996311"
     height="2.00738"
     x="10.332104"
     y="4.8118081" />
  <rect
     style="fill:#ffffff;fill-opacity:0"
     id="rect5"
     width="2.7749078"
     height="3.2472324"
     x="19.837639"
     y="6.6420665" />
</svg>
